<?xml version="1.0" encoding="UTF-8"?>
<svg version="1.1" viewBox="0 0 1048 996" width="262" height="249" xmlns="http://www.w3.org/2000/svg">
<path transform="translate(530,68)" d="m0 0 21 1 14 5 16 8 15 8 19 11 48 28 23 13 15 9 52 30 24 14 52 30 41 24 21 13 12 11 8 9 9 17 3 11 1 8v358l-2 17-4 11-9 16-15 15-22 13-24 14-21 12-10 6-43 25-26 15-15 9-26 15-24 14-19 11-22 13-14 8-41 24-16 9-12 5-8 3-11 1h-9l-10-1-22-9-24-14-25-14-24-14-21-12-29-17-19-11-10-6-26-15-19-11-10-6-21-12-38-22-48-28-12-9-8-8-10-15-7-18-2-12v-361l3-14 9-19 11-14 11-9 25-15 45-26 24-14 23-13 19-11 14-8 13-8 21-12 24-14 18-10 17-10 21-12 17-10 21-12 16-9 17-7 3-1zm5 93-10 6-21 12-48 28-23 13-22 13-21 12-48 28-21 12-22 13-21 12-15 9-26 15v330l5 4 25 14 17 10 26 15 41 24 23 13 15 9 27 15 27 16 18 10 15 9 12 7 4 1v-360l-4 2-5 4-49 49-8 7-5 4v2l-4 2-10 10-5 3-5 1h-8l-7-4-26-26-11-9-7-10-1-2v-6l6-10 87-87v-2l3-1 7-8 11-11 7-8 16-17 12-12v-2l4-2v-2l4-2v-2l4-2v-2l4-2v-2l4-2v-2l4-2v-2l4-2 10-6 8-1 11 4 6 4 140 140 7 8 13 13 7 8 8 8 5 10-1 9-4 6-9 10-12 11-5 4v2l-4 2-9 9-5 3-4 1h-7l-7-3-8-7-9-9-8-7-59-59-2 1v359l5-1 9-6 18-10 20-12 28-16 12-7 23-13 27-16 52-30 48-28 10-6 1-1 1-95v-227l-2-9-16-8-16-10-26-15-10-6-26-15-19-11-15-9-21-12-15-9-29-17-26-15-19-11-44-26-12-7z" fill="#FEFEFE"/>
</svg>



